<svg width="52" height="53" viewBox="0 0 52 53" fill="none" xmlns="http://www.w3.org/2000/svg">
<path d="M37.3556 17.6146C36.88 41.9558 22.2483 52.03 22.2483 52.03C22.605 50.6826 22.9141 49.3827 23.1677 48.1224C23.2708 47.6231 23.358 47.1396 23.4452 46.6561C23.5324 46.1726 23.6116 45.6891 23.683 45.2214C23.7781 44.6349 23.8494 44.0563 23.9207 43.4856C23.9524 43.2003 23.9841 42.9149 24.0159 42.6375C24.0555 42.2967 24.0872 41.9638 24.111 41.6388C24.1347 41.3455 24.1585 41.0602 24.1744 40.7748C24.2061 40.4023 24.2219 40.0298 24.2378 39.6652C24.2616 39.3006 24.2695 38.936 24.2774 38.5793C23.4452 43.1448 21.852 45.808 21.852 45.808C21.9551 28.9569 9.01953 24.1695 9.01953 24.1695L12.8162 21.4112L20.2826 15.9976C21.0118 17.4006 21.6301 18.7559 22.1532 20.0875L23.1995 19.9211L34.0108 18.1615L37.3556 17.6146Z" fill="url(#paint0_linear_343_10907)"/>
<path opacity="0.2" d="M24.2763 38.5793C24.3318 36.3837 24.2208 34.3943 24.0147 32.595C23.658 36.6929 22.7703 39.6493 22.263 41.0602C21.3991 37.3587 20.3053 34.1723 19.1084 31.4537C21.0741 32.1749 23.3093 32.4127 25.6079 32.0402C28.5168 31.5646 31.0135 30.1934 32.7969 28.3228C32.8603 28.3387 32.9237 28.3545 32.9951 28.3704C30.7044 39.5859 25.164 46.0854 23.1666 48.1224C23.2696 47.6231 23.3648 47.1396 23.444 46.6561C23.5312 46.1726 23.6105 45.697 23.6818 45.2214C23.7769 44.6349 23.8483 44.0563 23.9196 43.4856C23.9592 43.2002 23.9909 42.9149 24.0147 42.6375C24.0543 42.2967 24.086 41.9638 24.1098 41.6388C24.1336 41.3455 24.1574 41.0602 24.1732 40.7748C24.2049 40.3944 24.2287 40.0298 24.2366 39.6652C24.2604 39.3006 24.2684 38.936 24.2763 38.5793Z" fill="white"/>
<path d="M51.9145 13.1442C51.5182 10.7188 49.6794 8.84028 47.2539 8.04766C46.1839 2.66579 40.3899 -0.84551 34.1282 0.176967C32.6856 0.414752 31.3461 0.882397 30.1334 1.50856C28.5323 0.454383 26.4398 -0.0291118 24.2522 0.327566C23.2773 0.48609 22.3737 0.803136 21.5652 1.23115C19.5837 0.494015 17.3168 0.240377 14.9786 0.620834C9.8424 1.46101 5.9665 5.0912 5.1184 9.37926C1.73392 10.5603 -0.445774 13.6752 0.0773533 16.8853C0.251729 17.9554 0.711451 18.9065 1.36932 19.7229C1.03642 20.9515 0.949233 22.2355 1.15531 23.5354C2.0589 29.0917 7.9639 32.7535 14.3524 31.7152C16.223 31.414 17.9112 30.7324 19.3617 29.7892C21.6286 30.9702 24.4028 31.4616 27.28 30.9939C30.1889 30.5184 32.6856 29.1471 34.4611 27.2766C36.1731 27.7363 38.0437 27.8552 39.9539 27.5461C45.0505 26.7138 48.9026 23.1391 49.7903 18.8986C51.3993 17.3926 52.2554 15.3001 51.9066 13.1521L51.9145 13.1442Z" fill="url(#paint1_linear_343_10907)"/>
<path opacity="0.2" d="M49.798 18.8904C48.9103 23.1309 45.0582 26.7136 39.9616 27.5379C38.0435 27.8549 36.1729 27.736 34.4688 27.2763C32.6854 29.1469 30.1887 30.5181 27.2798 30.9937C24.4105 31.4613 21.6363 30.9699 19.3695 29.7889C17.919 30.7242 16.2228 31.4059 14.3601 31.7071C7.97162 32.7454 2.06662 29.0835 1.16304 23.5272C0.949029 22.2274 1.04414 20.9354 1.36911 19.7148C0.71124 18.8984 0.251518 17.9472 0.0771418 16.8772C-0.445986 13.6592 1.74164 10.5521 5.11819 9.3711C5.37183 8.11876 5.87118 6.92984 6.59246 5.83603C8.33622 3.20454 11.3402 1.20714 14.9784 0.612678C17.3166 0.232221 19.5835 0.493784 21.565 1.23092C22.3735 0.802905 23.2771 0.485858 24.252 0.327335C26.4396 -0.029343 28.54 0.454152 30.1332 1.50833C31.3459 0.874239 32.6854 0.414521 34.128 0.176736C37.4491 -0.362244 40.6433 0.366966 43.0687 1.98391C43.0766 1.98391 43.0846 1.99183 43.0925 1.99976C45.2246 3.42647 46.7544 5.52691 47.2537 8.04743C49.6791 8.84797 51.518 10.7185 51.9143 13.1519C52.2631 15.292 51.407 17.3845 49.798 18.8904Z" fill="white"/>
<path opacity="0.2" d="M47.3123 13.3503C47.3123 17.892 42.8737 21.5777 37.3967 21.5777C36.5724 21.5777 35.7797 21.4905 35.0109 21.3319C34.2183 25.2158 30.1521 28.1722 25.2458 28.1722C21.2828 28.1722 17.8745 26.2382 16.2893 23.4482C15.0528 23.9079 13.6816 24.1774 12.2311 24.1774C6.76201 24.1774 2.31543 20.4918 2.31543 15.9421C2.31543 13.2552 3.86896 10.8852 6.2706 9.37927C6.20719 9.00674 6.15963 8.61835 6.15963 8.22997C6.15963 7.39772 6.31022 6.58926 6.58764 5.83627C8.3314 3.20478 11.3354 1.20738 14.9735 0.612922C17.3118 0.232465 19.5786 0.494028 21.5602 1.23116C22.3687 0.803149 23.2722 0.486102 24.2472 0.327579C26.4348 -0.0290989 28.5352 0.454396 30.1284 1.50858C31.3411 0.874483 32.6806 0.414765 34.1232 0.17698C37.4442 -0.362 40.6385 0.36721 43.0639 1.98415C43.0718 1.98415 43.0797 1.99208 43.0877 2C44.8077 3.4822 45.8618 5.49544 45.8618 7.71477C45.8618 8.119 45.8143 8.52324 45.7509 8.91955C46.7337 10.1957 47.3123 11.7175 47.3123 13.3503Z" fill="white"/>
<path d="M14.7384 19.715L14.8969 20.682L10.2284 21.4429L9.21387 15.2208L13.7556 14.4837L13.9141 15.4507L10.5296 16.0055L10.7912 17.6225L13.7952 17.131L13.9537 18.0822L10.9497 18.5736L11.2271 20.2857L14.7384 19.715Z" fill="white"/>
<path d="M20.2546 19.8101L18.6852 18.1932C18.606 18.2169 18.5267 18.2249 18.4475 18.2407L17.0445 18.4706L17.3378 20.2857L16.1806 20.4759L15.166 14.2538L17.7262 13.8338C19.359 13.5643 20.5162 14.238 20.7381 15.6171C20.8887 16.5604 20.5241 17.3292 19.7315 17.7968L21.499 19.6119L20.2546 19.818V19.8101ZM17.8371 14.8166L16.4818 15.0385L16.886 17.5194L18.2334 17.2975C19.248 17.1311 19.6998 16.5841 19.573 15.7995C19.4461 15.0148 18.8438 14.6502 17.8371 14.8166Z" fill="white"/>
<path d="M26.7546 18.748L25.1852 17.1311C25.106 17.1548 25.0267 17.1628 24.9474 17.1786L23.5445 17.4085L23.8378 19.2236L22.6806 19.4138L21.666 13.1917L24.2262 12.7717C25.859 12.5022 27.0162 13.1759 27.2381 14.555C27.3887 15.4983 27.0241 16.2671 26.2315 16.7347L27.999 18.5498L26.7546 18.7559V18.748ZM24.3371 13.7545L22.9818 13.9764L23.386 16.4573L24.7414 16.2354C25.7559 16.0689 26.2077 15.522 26.0809 14.7373C25.9541 13.9527 25.3517 13.5881 24.3451 13.7545H24.3371Z" fill="white"/>
<path d="M28.2296 15.316C27.9284 13.4771 29.1332 11.8839 31.0592 11.5669C32.9853 11.2498 34.6339 12.3753 34.9351 14.2221C35.2363 16.0689 34.0315 17.6542 32.1055 17.9712C30.1794 18.2883 28.5308 17.1548 28.2296 15.316ZM33.77 14.4124C33.5639 13.1442 32.478 12.3753 31.2257 12.5814C29.9733 12.7875 29.1887 13.8575 29.3947 15.1257C29.6008 16.3939 30.6867 17.1628 31.939 16.9567C33.1914 16.7506 33.9761 15.6806 33.77 14.4124Z" fill="white"/>
<path d="M40.741 16.4732L39.1716 14.8562C39.0923 14.88 39.0131 14.8879 38.9338 14.9038L37.5308 15.1337L37.8241 16.9488L36.6669 17.139L35.6523 10.9169L38.2125 10.4968C39.8453 10.2274 41.0025 10.9011 41.2244 12.2802C41.375 13.2234 41.0104 13.9923 40.2178 14.4599L41.9853 16.275L40.741 16.4811V16.4732ZM38.3235 11.4797L36.9681 11.7016L37.3723 14.1825L38.7277 13.9606C39.7423 13.7941 40.194 13.2472 40.0672 12.4625C39.9404 11.6778 39.338 11.3132 38.3314 11.4797H38.3235Z" fill="white"/>
<defs>
<linearGradient id="paint0_linear_343_10907" x1="36.1071" y1="15.9976" x2="1.39304" y2="26.2784" gradientUnits="userSpaceOnUse">
<stop stop-color="#F50951"/>
<stop offset="0.427315" stop-color="#FD3A7E"/>
<stop offset="1" stop-color="#FF9B06"/>
</linearGradient>
<linearGradient id="paint1_linear_343_10907" x1="49.6932" y1="-4.30731e-06" x2="-0.618192" y2="30.8842" gradientUnits="userSpaceOnUse">
<stop stop-color="#F50951"/>
<stop offset="0.427315" stop-color="#FD3A7E"/>
<stop offset="1" stop-color="#FF9B06"/>
</linearGradient>
</defs>
</svg>
