<svg width="299" height="120" viewBox="0 0 299 120" fill="none" xmlns="http://www.w3.org/2000/svg">
<path d="M92.79 83.1649C92.79 83.1649 92.79 83.1571 92.7823 83.1571C92.5957 82.9392 92.3858 82.7369 92.1682 82.5423C92.1682 82.5423 92.1656 82.5397 92.1604 82.5345C91.9739 82.3166 91.764 82.1143 91.5463 81.9197C91.5463 81.9197 91.5438 81.9171 91.5386 81.9119C91.352 81.694 91.1421 81.4917 90.9245 81.3049C90.9245 81.3049 90.9219 81.3023 90.9167 81.2971C90.7302 81.0792 90.5203 80.8768 90.3027 80.6823C90.3027 80.6823 90.3001 80.6797 90.2949 80.6745C90.1083 80.4566 89.8985 80.2542 89.6808 80.0597C89.6808 80.0597 89.6782 80.0571 89.673 80.0519C89.4865 79.834 89.2766 79.6316 89.059 79.4448C89.059 79.4448 89.0564 79.4422 89.0512 79.4371C88.8646 79.2191 88.6548 79.0168 88.4371 78.8222C88.4371 78.8222 88.4345 78.8196 88.4293 78.8144C88.2428 78.5965 88.0329 78.3942 87.823 78.1996C87.823 78.1996 87.8204 78.197 87.8153 78.1918C87.6287 77.9739 87.4188 77.7716 87.2012 77.5848C87.2012 77.5848 87.1986 77.5822 87.1934 77.577C86.5638 76.8921 85.8409 76.3085 85.0247 75.8337V14.6702C85.0247 14.3511 84.8693 14.1799 84.8693 13.8608C84.8693 13.3705 84.8693 13.2071 84.706 12.888C84.706 12.7246 84.5506 12.3977 84.5506 12.2343C84.3873 11.7439 84.3873 11.5805 84.2241 11.2614C84.0609 11.098 83.9054 10.7711 83.9054 10.6077C83.5789 10.1174 83.4157 9.95395 83.2525 9.7983C83.0892 9.63486 82.9338 9.30799 82.7627 9.14456L82.1098 8.49082C82.1098 8.38964 81.9854 8.29625 81.8455 8.22621C81.76 8.1406 81.659 8.03943 81.5268 7.90712L81.4957 7.87599C81.4957 7.77482 81.3714 7.68143 81.2314 7.61138C81.1459 7.52578 81.0449 7.4246 80.9128 7.2923L80.8817 7.26117C80.8817 7.15999 80.7573 7.0666 80.6174 6.99656C80.5319 6.91095 80.4308 6.80977 80.2987 6.67747L80.2676 6.64634C80.2676 6.54517 80.1432 6.45178 80.0033 6.38173C79.9178 6.29612 79.8167 6.19495 79.6846 6.06264L79.6535 6.03151C79.6535 5.93034 79.5291 5.83695 79.3892 5.76691C79.3037 5.6813 79.2027 5.58012 79.0705 5.44782L79.0394 5.41669C79.0394 5.31551 78.9151 5.22212 78.7752 5.15208C78.6897 5.06647 78.5886 4.9653 78.4565 4.83299L78.4254 4.80186C78.4254 4.70069 78.301 4.6073 78.1611 4.53725C78.0756 4.45164 77.9745 4.35047 77.8424 4.21817L77.8113 4.18704C77.8113 4.08586 77.6869 3.99247 77.547 3.92243C77.4615 3.83682 77.3605 3.73565 77.2283 3.60334L77.1972 3.57221C77.1972 3.47104 77.0728 3.37765 76.9329 3.3076C76.8474 3.22199 76.7464 3.12082 76.6142 2.98852L76.5831 2.95738C76.5831 2.85621 76.4588 2.76282 76.3189 2.69278L75.9613 2.33478C75.9613 2.17912 75.6426 2.01569 75.4716 2.01569C75.4716 1.85225 75.3161 1.85225 75.3161 1.85225C74.9897 1.6966 74.8186 1.53317 74.4999 1.36195C74.3367 1.19852 74.0102 1.04286 73.6915 0.708212C73.5283 0.708212 73.2018 0.55256 73.0386 0.55256C72.7199 0.389125 72.2224 0.389125 72.067 0.22569C71.7483 0.22569 71.5773 0.22569 71.2508 0.0700378H68.4991C68.3359 0.22569 68.0094 0.22569 67.8462 0.22569C67.3565 0.389125 67.0378 0.389125 66.8745 0.55256C66.5558 0.55256 66.3848 0.708212 66.2216 1.04286C65.7319 1.04286 65.5764 1.19852 65.25 1.36195C65.0945 1.52539 64.7603 1.68882 64.597 1.85225C64.4416 2.01569 64.2783 2.17912 63.7886 2.34256C63.6332 2.66943 63.4699 2.83286 63.2989 2.9963C63.1357 3.15973 63.1357 3.31538 62.9802 3.31538L2.90976 78.0362C-0.00514698 81.7096 0.274685 86.8383 3.71817 89.9903C3.90472 90.216 4.11459 90.4183 4.34001 90.6129C4.52657 90.8386 4.73644 91.0409 4.96186 91.2355C5.14841 91.4612 5.35829 91.6635 5.58371 91.8581C5.77026 92.0838 5.98014 92.2861 6.20556 92.4807C6.39211 92.7064 6.60198 92.9087 6.8274 93.1033C7.01396 93.329 7.22383 93.5314 7.44925 93.7259C7.6358 93.9516 7.84568 94.154 8.0711 94.3485C8.25765 94.5742 8.46753 94.7766 8.69295 94.9711C8.8795 95.1968 9.08937 95.3992 9.31479 95.5937C9.6879 96.014 10.1154 96.4109 10.5818 96.7689C12.2064 98.2321 14.1497 98.7146 16.1007 98.7146H61.0447V104.871C61.0447 107.563 62.1485 109.922 63.9441 111.54L63.9674 111.564C64.154 111.774 64.3561 111.968 64.5582 112.155C64.5659 112.163 64.5737 112.163 64.5737 112.171C64.7603 112.389 64.9701 112.583 65.1722 112.77L65.1956 112.793C65.3821 113.003 65.5842 113.198 65.7863 113.385C65.7941 113.393 65.8019 113.393 65.8019 113.4C65.9884 113.618 66.1983 113.813 66.4004 114L66.4237 114.023C66.6103 114.233 66.8124 114.428 67.0145 114.614C67.0222 114.622 67.03 114.622 67.03 114.63C67.2166 114.848 67.4264 115.042 67.6285 115.229L67.6519 115.253C67.8384 115.463 68.0405 115.657 68.2426 115.844C68.2504 115.852 68.2582 115.852 68.2582 115.86C68.4447 116.078 68.6546 116.272 68.8567 116.459L68.88 116.482C69.0666 116.692 69.2687 116.887 69.4708 117.074C69.4785 117.082 69.4863 117.082 69.4863 117.089C71.1031 118.864 73.4428 119.961 76.109 119.961C81.1382 119.961 85.0325 116.054 85.0325 111.019V98.6679H86.6571C91.6863 98.6679 95.7438 94.7688 95.7438 89.7335C95.7438 87.1496 94.6012 84.7837 92.7745 83.1416L92.79 83.1649ZM61.0136 48.3611V74.6274H39.8786L61.0136 48.3611Z" fill="url(#paint0_linear_343_10792)"/>
<path opacity="0.1" d="M92.79 83.1649C92.79 83.1649 92.79 83.1571 92.7823 83.1571C92.5957 82.9392 92.3858 82.7369 92.1682 82.5423C92.1682 82.5423 92.1656 82.5397 92.1604 82.5345C91.9739 82.3166 91.764 82.1143 91.5463 81.9197C91.5463 81.9197 91.5438 81.9171 91.5386 81.9119C91.352 81.694 91.1421 81.4917 90.9245 81.3049C90.9245 81.3049 90.9219 81.3023 90.9167 81.2971C90.7302 81.0792 90.5203 80.8768 90.3027 80.6823C90.3027 80.6823 90.3001 80.6797 90.2949 80.6745C90.1083 80.4566 89.8985 80.2542 89.6808 80.0597C89.6808 80.0597 89.6782 80.0571 89.673 80.0519C89.4865 79.834 89.2766 79.6316 89.059 79.4448C89.059 79.4448 89.0564 79.4422 89.0512 79.4371C88.8646 79.2191 88.6548 79.0168 88.4371 78.8222C88.4371 78.8222 88.4345 78.8196 88.4293 78.8144C88.2428 78.5965 88.0329 78.3942 87.823 78.1996C87.823 78.1996 87.8204 78.197 87.8153 78.1918C87.6287 77.9739 87.4188 77.7716 87.2012 77.5848C87.2012 77.5848 87.1986 77.5822 87.1934 77.577C86.5638 76.8921 85.8409 76.3085 85.0247 75.8337V14.6702C85.0247 14.3511 84.8693 14.1799 84.8693 13.8608C84.8693 13.3705 84.8693 13.2071 84.706 12.888C84.706 12.7246 84.5506 12.3977 84.5506 12.2343C84.3873 11.7439 84.3873 11.5805 84.2241 11.2614C84.0609 11.098 83.9054 10.7711 83.9054 10.6077C83.5789 10.1174 83.4157 9.95395 83.2525 9.7983C83.0892 9.63486 82.9338 9.30799 82.7627 9.14456L82.1098 8.49082C82.1098 8.38964 81.9854 8.29625 81.8455 8.22621C81.76 8.1406 81.659 8.03943 81.5268 7.90712L81.4957 7.87599C81.4957 7.77482 81.3714 7.68143 81.2314 7.61138C81.1459 7.52578 81.0449 7.4246 80.9128 7.2923L80.8817 7.26117C80.8817 7.15999 80.7573 7.0666 80.6174 6.99656C80.5319 6.91095 80.4308 6.80977 80.2987 6.67747L80.2676 6.64634C80.2676 6.54517 80.1432 6.45178 80.0033 6.38173C79.9178 6.29612 79.8167 6.19495 79.6846 6.06264L79.6535 6.03151C79.6535 5.93034 79.5291 5.83695 79.3892 5.76691C79.3037 5.6813 79.2027 5.58012 79.0705 5.44782L79.0394 5.41669C79.0394 5.31551 78.9151 5.22212 78.7752 5.15208C78.6897 5.06647 78.5886 4.9653 78.4565 4.83299L78.4254 4.80186C78.4254 4.70069 78.301 4.6073 78.1611 4.53725C78.0756 4.45164 77.9745 4.35047 77.8424 4.21817L77.8113 4.18704C77.8113 4.08586 77.6869 3.99247 77.547 3.92243C77.4615 3.83682 77.3605 3.73565 77.2283 3.60334L77.1972 3.57221C77.1972 3.47104 77.0728 3.37765 76.9329 3.3076C76.8474 3.22199 76.7464 3.12082 76.6142 2.98852L76.5831 2.95738C76.5831 2.85621 76.4588 2.76282 76.3189 2.69278L75.9613 2.33478C75.9613 2.17912 75.6426 2.01569 75.4716 2.01569C75.4716 1.85225 75.3161 1.85225 75.3161 1.85225C74.9897 1.6966 74.8186 1.53317 74.4999 1.36195C74.3367 1.19852 74.0102 1.04286 73.6915 0.708212C73.5283 0.708212 73.2018 0.55256 73.0386 0.55256C72.7199 0.389125 72.2224 0.389125 72.067 0.22569C71.7483 0.22569 71.5773 0.22569 71.2508 0.0700378H68.4991C68.3359 0.22569 68.0094 0.22569 67.8462 0.22569C67.3565 0.389125 67.0378 0.389125 66.8745 0.55256C66.5558 0.55256 66.3848 0.708212 66.2216 1.04286C65.7319 1.04286 65.5764 1.19852 65.25 1.36195C65.0945 1.52539 64.7603 1.68882 64.597 1.85225C64.4416 2.01569 64.2783 2.17912 63.7886 2.34256C63.6332 2.66943 63.4699 2.83286 63.2989 2.9963C63.1357 3.15973 63.1357 3.31538 62.9802 3.31538L2.90976 78.0362C-0.00514698 81.7096 0.274685 86.8383 3.71817 89.9903C3.90472 90.216 4.11459 90.4183 4.34001 90.6129C4.52657 90.8386 4.73644 91.0409 4.96186 91.2355C5.14841 91.4612 5.35829 91.6635 5.58371 91.8581C5.77026 92.0838 5.98014 92.2861 6.20556 92.4807C6.39211 92.7064 6.60198 92.9087 6.8274 93.1033C7.01396 93.329 7.22383 93.5314 7.44925 93.7259C7.6358 93.9516 7.84568 94.154 8.0711 94.3485C8.25765 94.5742 8.46753 94.7766 8.69295 94.9711C8.8795 95.1968 9.08937 95.3992 9.31479 95.5937C9.6879 96.014 10.1154 96.4109 10.5818 96.7689C12.2064 98.2321 14.1497 98.7146 16.1007 98.7146H61.0447V104.871C61.0447 107.563 62.1485 109.922 63.9441 111.54L63.9674 111.564C64.154 111.774 64.3561 111.968 64.5582 112.155C64.5659 112.163 64.5737 112.163 64.5737 112.171C64.7603 112.389 64.9701 112.583 65.1722 112.77L65.1956 112.793C65.3821 113.003 65.5842 113.198 65.7863 113.385C65.7941 113.393 65.8019 113.393 65.8019 113.4C65.9884 113.618 66.1983 113.813 66.4004 114L66.4237 114.023C66.6103 114.233 66.8124 114.428 67.0145 114.614C67.0222 114.622 67.03 114.622 67.03 114.63C67.2166 114.848 67.4264 115.042 67.6285 115.229L67.6519 115.253C67.8384 115.463 68.0405 115.657 68.2426 115.844C68.2504 115.852 68.2582 115.852 68.2582 115.86C68.4447 116.078 68.6546 116.272 68.8567 116.459L68.88 116.482C69.0666 116.692 69.2687 116.887 69.4708 117.074C69.4785 117.082 69.4863 117.082 69.4863 117.089C71.1031 118.864 73.4428 119.961 76.109 119.961C81.1382 119.961 85.0325 116.054 85.0325 111.019V98.6679H86.6571C91.6863 98.6679 95.7438 94.7688 95.7438 89.7335C95.7438 87.1496 94.6012 84.7837 92.7745 83.1416L92.79 83.1649ZM61.0136 48.3611V74.6274H39.8786L61.0136 48.3611Z" fill="black"/>
<path d="M89.5777 83.5618C89.5777 88.5972 85.5201 92.4963 80.491 92.4963H78.8664V104.847C78.8664 109.883 74.9721 113.782 69.9429 113.782C64.9137 113.782 61.0116 109.883 61.0116 104.847V92.4963H9.88018C7.92913 92.4963 5.98586 92.006 4.36128 90.5428C0.303729 87.4531 -0.185977 81.9275 2.89994 78.0284L62.9549 3.27648C63.1181 3.27648 63.1181 3.11304 63.2813 2.94961C63.4446 2.78617 63.6078 2.62274 63.771 2.29587C64.253 2.13243 64.4162 1.969 64.5794 1.80556C64.7427 1.64213 65.0691 1.47869 65.2324 1.31526C65.5588 1.15183 65.7221 0.98839 66.204 0.98839C66.3672 0.661521 66.5305 0.498086 66.8569 0.498086C67.0202 0.334651 67.3467 0.334651 67.8286 0.171217C67.9918 0.171217 68.3105 0.171217 68.4737 0.00778198H71.2332C71.5597 0.171217 71.7229 0.171217 72.0416 0.171217C72.2048 0.334651 72.6868 0.334651 73.0132 0.498086C73.1765 0.498086 73.5029 0.661521 73.6662 0.661521C73.9926 0.98839 74.3113 1.15183 74.4746 1.30748C74.801 1.47091 74.9643 1.63435 75.283 1.79778C75.283 1.79778 75.4462 1.79778 75.4462 1.96122C75.6095 1.96122 75.9359 2.12465 75.9359 2.28809C76.2624 2.61495 76.4179 2.77839 76.5811 2.94182C76.7443 3.10526 76.9076 3.43213 77.0708 3.58778C77.234 3.75122 77.3973 3.91465 77.7237 4.39717C77.7237 4.56061 77.887 4.88748 78.0502 5.05091C78.2134 5.37778 78.2134 5.54121 78.3767 6.02374C78.3767 6.18717 78.5399 6.51404 78.5399 6.66969C78.7031 6.99656 78.7031 7.16 78.7031 7.64252C78.7031 7.96939 78.8664 8.13282 78.8664 8.45191V74.6196H80.491C85.5201 74.6196 89.5777 78.6821 89.5777 83.554V83.5618ZM61.0116 34.4847L28.7144 74.6274H61.0116V34.4769V34.4847Z" fill="url(#paint1_linear_343_10792)"/>
<path d="M184.521 24.2584C182.671 21.4411 180.549 18.8339 178.171 16.5225C178.077 16.4213 177.992 16.3357 177.891 16.2501C177.868 16.2267 177.844 16.1956 177.805 16.1645C177.728 16.0789 177.658 16.001 177.572 15.9232C177.362 15.6975 177.145 15.4952 176.927 15.2773C176.911 15.2617 176.888 15.2383 176.873 15.2306C176.795 15.1527 176.725 15.0827 176.647 15.0049C176.624 14.9815 176.601 14.9504 176.562 14.9193C176.484 14.8336 176.414 14.7558 176.328 14.678C176.119 14.4523 175.901 14.25 175.683 14.032C175.668 14.0165 175.644 13.9931 175.629 13.9853C175.551 13.9075 175.481 13.8375 175.404 13.7596C175.38 13.7363 175.357 13.7052 175.318 13.674C175.24 13.5884 175.17 13.5106 175.085 13.4328C174.875 13.2071 174.657 13.0047 174.44 12.7868C174.424 12.7713 174.401 12.7479 174.385 12.7401C174.307 12.6623 174.238 12.5923 174.16 12.5144C174.136 12.4911 174.113 12.46 174.074 12.4288C173.997 12.3432 173.927 12.2654 173.841 12.1876C173.631 11.9619 173.414 11.7595 173.196 11.5416C173.18 11.526 173.157 11.5027 173.142 11.4949C173.064 11.4093 173.002 11.3393 172.916 11.2692C172.893 11.2459 172.869 11.2147 172.831 11.1836C166.317 4.45165 157.813 0 148.283 0C135.458 0 124.909 7.63474 118.092 18.0323C110.949 28.4376 107.226 41.9249 107.055 56.8753C107.218 71.6622 110.949 85.3129 118.092 95.7183C119.935 98.4655 122.033 101.049 124.373 103.345C124.482 103.454 124.591 103.555 124.692 103.657C124.707 103.664 124.723 103.68 124.731 103.695C124.917 103.89 125.119 104.085 125.306 104.271C125.407 104.38 125.5 104.481 125.601 104.575C125.71 104.684 125.819 104.785 125.92 104.886C125.936 104.894 125.951 104.91 125.959 104.925C126.145 105.12 126.348 105.314 126.534 105.501C126.635 105.61 126.728 105.711 126.829 105.805C126.938 105.913 127.047 106.015 127.148 106.116C127.164 106.124 127.179 106.139 127.187 106.155C127.374 106.349 127.576 106.544 127.762 106.731C127.863 106.84 127.957 106.941 128.058 107.034C128.166 107.143 128.275 107.244 128.376 107.345C128.392 107.353 128.407 107.369 128.415 107.384C128.602 107.579 128.804 107.774 128.99 107.96C129.091 108.069 129.185 108.17 129.286 108.264C129.395 108.373 129.503 108.474 129.604 108.575C129.62 108.583 129.636 108.598 129.643 108.614C129.83 108.809 130.032 109.003 130.219 109.19C136.631 115.603 144.91 119.907 154.424 119.907C166.915 119.907 177.627 112.101 184.451 101.867C191.432 91.4612 195.326 77.8105 195.326 63.0235C195.326 48.2366 191.424 34.5859 184.451 24.1806L184.521 24.2584ZM163.402 85.6709C158.691 92.6597 153.343 95.7416 148.306 95.7416C145.539 95.7416 142.617 94.8077 139.748 92.792C139.515 92.4963 139.297 92.185 139.072 91.8581C134.525 85.0328 131.276 74.6352 131.276 63.0936C131.276 51.552 134.525 41.1544 139.072 34.1734C143.946 27.3481 149.465 24.1027 154.494 24.2584C157.168 24.1728 159.927 25.0522 162.64 26.9278C162.897 27.278 163.153 27.6205 163.402 27.9863C167.949 34.975 171.198 45.2092 171.198 56.9064C171.198 68.6037 167.949 78.8456 163.402 85.6709Z" fill="url(#paint2_linear_343_10792)"/>
<path opacity="0.1" d="M184.521 24.2584C182.671 21.4411 180.549 18.8339 178.171 16.5225C178.077 16.4213 177.992 16.3357 177.891 16.2501C177.868 16.2267 177.844 16.1956 177.805 16.1645C177.728 16.0789 177.658 16.001 177.572 15.9232C177.362 15.6975 177.145 15.4952 176.927 15.2773C176.911 15.2617 176.888 15.2383 176.873 15.2306C176.795 15.1527 176.725 15.0827 176.647 15.0049C176.624 14.9815 176.601 14.9504 176.562 14.9193C176.484 14.8336 176.414 14.7558 176.328 14.678C176.119 14.4523 175.901 14.25 175.683 14.032C175.668 14.0165 175.644 13.9931 175.629 13.9853C175.551 13.9075 175.481 13.8375 175.404 13.7596C175.38 13.7363 175.357 13.7052 175.318 13.674C175.24 13.5884 175.17 13.5106 175.085 13.4328C174.875 13.2071 174.657 13.0047 174.44 12.7868C174.424 12.7713 174.401 12.7479 174.385 12.7401C174.307 12.6623 174.238 12.5923 174.16 12.5144C174.136 12.4911 174.113 12.46 174.074 12.4288C173.997 12.3432 173.927 12.2654 173.841 12.1876C173.631 11.9619 173.414 11.7595 173.196 11.5416C173.18 11.526 173.157 11.5027 173.142 11.4949C173.064 11.4093 173.002 11.3393 172.916 11.2692C172.893 11.2459 172.869 11.2147 172.831 11.1836C166.317 4.45165 157.813 0 148.283 0C135.458 0 124.909 7.63474 118.092 18.0323C110.949 28.4376 107.226 41.9249 107.055 56.8753C107.218 71.6622 110.949 85.3129 118.092 95.7183C119.935 98.4655 122.033 101.049 124.373 103.345C124.482 103.454 124.591 103.555 124.692 103.657C124.707 103.664 124.723 103.68 124.731 103.695C124.917 103.89 125.119 104.085 125.306 104.271C125.407 104.38 125.5 104.481 125.601 104.575C125.71 104.684 125.819 104.785 125.92 104.886C125.936 104.894 125.951 104.91 125.959 104.925C126.145 105.12 126.348 105.314 126.534 105.501C126.635 105.61 126.728 105.711 126.829 105.805C126.938 105.913 127.047 106.015 127.148 106.116C127.164 106.124 127.179 106.139 127.187 106.155C127.374 106.349 127.576 106.544 127.762 106.731C127.863 106.84 127.957 106.941 128.058 107.034C128.166 107.143 128.275 107.244 128.376 107.345C128.392 107.353 128.407 107.369 128.415 107.384C128.602 107.579 128.804 107.774 128.99 107.96C129.091 108.069 129.185 108.17 129.286 108.264C129.395 108.373 129.503 108.474 129.604 108.575C129.62 108.583 129.636 108.598 129.643 108.614C129.83 108.809 130.032 109.003 130.219 109.19C136.631 115.603 144.91 119.907 154.424 119.907C166.915 119.907 177.627 112.101 184.451 101.867C191.432 91.4612 195.326 77.8105 195.326 63.0235C195.326 48.2366 191.424 34.5859 184.451 24.1806L184.521 24.2584ZM163.402 85.6709C158.691 92.6597 153.343 95.7416 148.306 95.7416C145.539 95.7416 142.617 94.8077 139.748 92.792C139.515 92.4963 139.297 92.185 139.072 91.8581C134.525 85.0328 131.276 74.6352 131.276 63.0936C131.276 51.552 134.525 41.1544 139.072 34.1734C143.946 27.3481 149.465 24.1027 154.494 24.2584C157.168 24.1728 159.927 25.0522 162.64 26.9278C162.897 27.278 163.153 27.6205 163.402 27.9863C167.949 34.975 171.198 45.2092 171.198 56.9064C171.198 68.6037 167.949 78.8456 163.402 85.6709Z" fill="black"/>
<path d="M107.079 56.9064C107.242 41.956 110.973 28.4688 118.117 18.0634C124.934 7.66587 135.482 0.0233459 148.308 0.0233459C161.133 0.0233459 171.518 7.65808 178.335 18.0634C185.315 28.461 189.21 41.9482 189.21 56.9064C189.21 71.8646 185.315 85.3441 178.335 95.7416C171.518 105.984 160.807 113.782 148.308 113.782C135.808 113.782 124.934 105.984 118.117 95.7416C110.973 85.3441 107.242 71.6934 107.079 56.9064ZM171.192 56.9064C171.192 45.2092 167.942 34.9672 163.403 27.9785C158.692 21.1531 153.345 17.9 148.308 18.0634C143.278 17.9 137.759 21.1531 132.894 27.9785C128.346 34.9672 125.105 45.2014 125.105 56.9064C125.105 68.6115 128.354 78.8456 132.894 85.6709C137.759 92.6597 143.278 95.7494 148.308 95.7494C153.337 95.7494 158.692 92.6597 163.403 85.6709C167.95 78.8456 171.192 68.448 171.192 56.9064Z" fill="url(#paint3_linear_343_10792)"/>
<path d="M295.112 83.1649C295.112 83.1649 295.112 83.1571 295.105 83.1571C294.91 82.9392 294.7 82.7369 294.491 82.5423C294.491 82.5423 294.488 82.5397 294.483 82.5345C294.288 82.3166 294.079 82.1143 293.869 81.9197C293.869 81.9197 293.866 81.9171 293.861 81.9119C293.667 81.694 293.457 81.4917 293.255 81.3049C293.255 81.3049 293.252 81.3023 293.247 81.2971C293.053 81.0792 292.843 80.8768 292.633 80.6823C292.633 80.6823 292.63 80.6797 292.625 80.6745C292.431 80.4566 292.221 80.2542 292.011 80.0597C292.011 80.0597 292.008 80.0571 292.003 80.0519C291.809 79.834 291.599 79.6316 291.397 79.4448C291.397 79.4448 291.394 79.4422 291.389 79.4371C291.195 79.2191 290.985 79.0168 290.775 78.8222C290.775 78.8222 290.772 78.8196 290.767 78.8144C290.573 78.5965 290.363 78.3942 290.153 78.1996C290.153 78.1996 290.151 78.197 290.145 78.1918C289.951 77.9739 289.741 77.7716 289.539 77.5848C289.539 77.5848 289.537 77.5822 289.531 77.577C288.902 76.8921 288.171 76.3007 287.355 75.8337V14.6702C287.355 14.3511 287.199 14.1799 287.199 13.8608C287.199 13.3705 287.199 13.2071 287.036 12.888C287.036 12.7246 286.881 12.3977 286.881 12.2343C286.717 11.7439 286.717 11.5805 286.554 11.2614C286.399 11.098 286.236 10.7711 286.236 10.6077C285.917 10.1174 285.746 9.95395 285.583 9.7983C285.419 9.63486 285.264 9.30799 285.093 9.14456L284.44 8.49082C284.44 8.38964 284.316 8.29625 284.176 8.22621C284.09 8.1406 283.989 8.03943 283.857 7.90712L283.826 7.87599C283.826 7.77482 283.702 7.68143 283.562 7.61138C283.476 7.52578 283.375 7.4246 283.243 7.2923L283.212 7.26117C283.212 7.15999 283.087 7.0666 282.948 6.99656C282.862 6.91095 282.761 6.80977 282.629 6.67747L282.598 6.64634C282.598 6.54517 282.473 6.45178 282.333 6.38173L282.015 6.06264L281.984 6.03151C281.984 5.93034 281.859 5.83695 281.719 5.76691C281.634 5.6813 281.533 5.58012 281.401 5.44782L281.37 5.41669C281.37 5.31551 281.245 5.22212 281.105 5.15208C281.02 5.06647 280.919 4.9653 280.787 4.83299L280.756 4.80186C280.756 4.70069 280.631 4.6073 280.491 4.53725C280.406 4.45164 280.305 4.35047 280.173 4.21817L280.141 4.18704C280.141 4.08586 280.017 3.99247 279.877 3.92243C279.792 3.83682 279.691 3.73565 279.558 3.60334L279.527 3.57221C279.527 3.47104 279.403 3.37765 279.263 3.3076C279.178 3.22199 279.077 3.12082 278.944 2.98852L278.913 2.95738C278.913 2.85621 278.789 2.76282 278.649 2.69278L278.291 2.33478C278.291 2.17912 277.973 2.01569 277.802 2.01569C277.802 1.85225 277.639 1.85225 277.639 1.85225C277.32 1.6966 277.149 1.53317 276.83 1.36195C276.667 1.19852 276.34 1.04286 276.022 0.708212C275.858 0.708212 275.532 0.55256 275.369 0.55256C275.05 0.389125 274.56 0.389125 274.397 0.22569C274.071 0.22569 273.907 0.22569 273.581 0.0700378H270.829C270.666 0.22569 270.34 0.22569 270.176 0.22569C269.687 0.389125 269.368 0.389125 269.205 0.55256C268.886 0.55256 268.715 0.708212 268.552 1.04286C268.07 1.04286 267.907 1.19852 267.58 1.36195C267.425 1.52539 267.09 1.68882 266.935 1.85225C266.772 2.01569 266.608 2.17912 266.119 2.34256C265.956 2.66943 265.8 2.83286 265.629 2.9963C265.466 3.15973 265.466 3.31538 265.31 3.31538L205.255 78.0751C202.341 81.7485 202.62 86.8772 206.064 90.0292C206.25 90.2549 206.46 90.4572 206.686 90.6518C206.872 90.8775 207.082 91.0798 207.308 91.2744C207.494 91.5001 207.704 91.7025 207.929 91.897C208.116 92.1227 208.326 92.3251 208.551 92.5196C208.738 92.7453 208.948 92.9477 209.173 93.1422C209.36 93.3679 209.57 93.5703 209.795 93.7648C209.982 93.9905 210.191 94.1929 210.417 94.3875C210.603 94.6131 210.813 94.8155 211.039 95.0101C211.225 95.2358 211.435 95.4381 211.661 95.6327C212.034 96.0529 212.461 96.4498 212.928 96.8078C214.552 98.271 216.495 98.7535 218.446 98.7535H263.39V104.91C263.39 107.595 264.494 109.96 266.29 111.579C266.298 111.587 266.305 111.587 266.305 111.595C266.492 111.813 266.702 112.007 266.904 112.194L266.927 112.217C267.114 112.428 267.316 112.622 267.518 112.809C267.526 112.817 267.534 112.817 267.534 112.824C267.72 113.042 267.93 113.237 268.132 113.424L268.155 113.447C268.342 113.657 268.544 113.852 268.746 114.039C268.754 114.046 268.762 114.046 268.762 114.054C268.948 114.272 269.158 114.467 269.36 114.653L269.383 114.677C269.57 114.887 269.772 115.081 269.974 115.268C269.982 115.276 269.99 115.276 269.99 115.284C270.176 115.502 270.386 115.696 270.588 115.883L270.612 115.906C270.798 116.116 271 116.311 271.202 116.498C271.21 116.506 271.218 116.506 271.218 116.513C271.404 116.731 271.614 116.926 271.816 117.113L271.84 117.136C273.457 118.91 275.789 120 278.455 120C283.484 120 287.378 116.093 287.378 111.058V98.7068H289.003C294.04 98.7068 298.097 94.8077 298.097 89.7724C298.097 87.1885 296.955 84.8226 295.128 83.1805L295.112 83.1649ZM263.328 48.3611V74.6274H242.193L263.328 48.3611Z" fill="url(#paint4_linear_343_10792)"/>
<path opacity="0.1" d="M295.112 83.1649C295.112 83.1649 295.112 83.1571 295.105 83.1571C294.91 82.9392 294.7 82.7369 294.491 82.5423C294.491 82.5423 294.488 82.5397 294.483 82.5345C294.288 82.3166 294.079 82.1143 293.869 81.9197C293.869 81.9197 293.866 81.9171 293.861 81.9119C293.667 81.694 293.457 81.4917 293.255 81.3049C293.255 81.3049 293.252 81.3023 293.247 81.2971C293.053 81.0792 292.843 80.8768 292.633 80.6823C292.633 80.6823 292.63 80.6797 292.625 80.6745C292.431 80.4566 292.221 80.2542 292.011 80.0597C292.011 80.0597 292.008 80.0571 292.003 80.0519C291.809 79.834 291.599 79.6316 291.397 79.4448C291.397 79.4448 291.394 79.4422 291.389 79.4371C291.195 79.2191 290.985 79.0168 290.775 78.8222C290.775 78.8222 290.772 78.8196 290.767 78.8144C290.573 78.5965 290.363 78.3942 290.153 78.1996C290.153 78.1996 290.151 78.197 290.145 78.1918C289.951 77.9739 289.741 77.7716 289.539 77.5848C289.539 77.5848 289.537 77.5822 289.531 77.577C288.902 76.8921 288.171 76.3007 287.355 75.8337V14.6702C287.355 14.3511 287.199 14.1799 287.199 13.8608C287.199 13.3705 287.199 13.2071 287.036 12.888C287.036 12.7246 286.881 12.3977 286.881 12.2343C286.717 11.7439 286.717 11.5805 286.554 11.2614C286.399 11.098 286.236 10.7711 286.236 10.6077C285.917 10.1174 285.746 9.95395 285.583 9.7983C285.419 9.63486 285.264 9.30799 285.093 9.14456L284.44 8.49082C284.44 8.38964 284.316 8.29625 284.176 8.22621C284.09 8.1406 283.989 8.03943 283.857 7.90712L283.826 7.87599C283.826 7.77482 283.702 7.68143 283.562 7.61138C283.476 7.52578 283.375 7.4246 283.243 7.2923L283.212 7.26117C283.212 7.15999 283.087 7.0666 282.948 6.99656C282.862 6.91095 282.761 6.80977 282.629 6.67747L282.598 6.64634C282.598 6.54517 282.473 6.45178 282.333 6.38173L282.015 6.06264L281.984 6.03151C281.984 5.93034 281.859 5.83695 281.719 5.76691C281.634 5.6813 281.533 5.58012 281.401 5.44782L281.37 5.41669C281.37 5.31551 281.245 5.22212 281.105 5.15208C281.02 5.06647 280.919 4.9653 280.787 4.83299L280.756 4.80186C280.756 4.70069 280.631 4.6073 280.491 4.53725C280.406 4.45164 280.305 4.35047 280.173 4.21817L280.141 4.18704C280.141 4.08586 280.017 3.99247 279.877 3.92243C279.792 3.83682 279.691 3.73565 279.558 3.60334L279.527 3.57221C279.527 3.47104 279.403 3.37765 279.263 3.3076C279.178 3.22199 279.077 3.12082 278.944 2.98852L278.913 2.95738C278.913 2.85621 278.789 2.76282 278.649 2.69278L278.291 2.33478C278.291 2.17912 277.973 2.01569 277.802 2.01569C277.802 1.85225 277.639 1.85225 277.639 1.85225C277.32 1.6966 277.149 1.53317 276.83 1.36195C276.667 1.19852 276.34 1.04286 276.022 0.708212C275.858 0.708212 275.532 0.55256 275.369 0.55256C275.05 0.389125 274.56 0.389125 274.397 0.22569C274.071 0.22569 273.907 0.22569 273.581 0.0700378H270.829C270.666 0.22569 270.34 0.22569 270.176 0.22569C269.687 0.389125 269.368 0.389125 269.205 0.55256C268.886 0.55256 268.715 0.708212 268.552 1.04286C268.07 1.04286 267.907 1.19852 267.58 1.36195C267.425 1.52539 267.09 1.68882 266.935 1.85225C266.772 2.01569 266.608 2.17912 266.119 2.34256C265.956 2.66943 265.8 2.83286 265.629 2.9963C265.466 3.15973 265.466 3.31538 265.31 3.31538L205.255 78.0751C202.341 81.7485 202.62 86.8772 206.064 90.0292C206.25 90.2549 206.46 90.4572 206.686 90.6518C206.872 90.8775 207.082 91.0798 207.308 91.2744C207.494 91.5001 207.704 91.7025 207.929 91.897C208.116 92.1227 208.326 92.3251 208.551 92.5196C208.738 92.7453 208.948 92.9477 209.173 93.1422C209.36 93.3679 209.57 93.5703 209.795 93.7648C209.982 93.9905 210.191 94.1929 210.417 94.3875C210.603 94.6131 210.813 94.8155 211.039 95.0101C211.225 95.2358 211.435 95.4381 211.661 95.6327C212.034 96.0529 212.461 96.4498 212.928 96.8078C214.552 98.271 216.495 98.7535 218.446 98.7535H263.39V104.91C263.39 107.595 264.494 109.96 266.29 111.579C266.298 111.587 266.305 111.587 266.305 111.595C266.492 111.813 266.702 112.007 266.904 112.194L266.927 112.217C267.114 112.428 267.316 112.622 267.518 112.809C267.526 112.817 267.534 112.817 267.534 112.824C267.72 113.042 267.93 113.237 268.132 113.424L268.155 113.447C268.342 113.657 268.544 113.852 268.746 114.039C268.754 114.046 268.762 114.046 268.762 114.054C268.948 114.272 269.158 114.467 269.36 114.653L269.383 114.677C269.57 114.887 269.772 115.081 269.974 115.268C269.982 115.276 269.99 115.276 269.99 115.284C270.176 115.502 270.386 115.696 270.588 115.883L270.612 115.906C270.798 116.116 271 116.311 271.202 116.498C271.21 116.506 271.218 116.506 271.218 116.513C271.404 116.731 271.614 116.926 271.816 117.113L271.84 117.136C273.457 118.91 275.789 120 278.455 120C283.484 120 287.378 116.093 287.378 111.058V98.7068H289.003C294.04 98.7068 298.097 94.8077 298.097 89.7724C298.097 87.1885 296.955 84.8226 295.128 83.1805L295.112 83.1649ZM263.328 48.3611V74.6274H242.193L263.328 48.3611Z" fill="black"/>
<path d="M291.881 83.5618C291.881 88.5972 287.823 92.4963 282.794 92.4963H281.17V104.847C281.17 109.883 277.275 113.782 272.246 113.782C267.217 113.782 263.315 109.883 263.315 104.847V92.4963H212.183C210.232 92.4963 208.289 92.006 206.665 90.5428C202.607 87.4531 202.117 81.9275 205.203 78.0284L265.258 3.27648C265.421 3.27648 265.421 3.11304 265.585 2.94961C265.748 2.78617 265.911 2.62274 266.074 2.29587C266.564 2.13243 266.727 1.969 266.883 1.80556C267.046 1.64213 267.372 1.47869 267.536 1.31526C267.862 1.15183 268.025 0.98839 268.507 0.98839C268.67 0.661521 268.834 0.498086 269.16 0.498086C269.323 0.334651 269.65 0.334651 270.132 0.171217C270.295 0.171217 270.621 0.171217 270.785 0.00778198H273.544C273.871 0.171217 274.034 0.171217 274.353 0.171217C274.516 0.334651 275.006 0.334651 275.324 0.498086C275.487 0.498086 275.814 0.661521 275.977 0.661521C276.304 0.98839 276.622 1.15183 276.786 1.30748C277.112 1.47091 277.275 1.63435 277.594 1.79778C277.594 1.79778 277.757 1.79778 277.757 1.96122C277.92 1.96122 278.247 2.12465 278.247 2.28809C278.573 2.61495 278.737 2.77839 278.9 2.94182C279.063 3.10526 279.226 3.43213 279.39 3.58778C279.553 3.75122 279.716 3.91465 280.042 4.39717C280.042 4.56061 280.206 4.88748 280.369 5.05091C280.532 5.37778 280.532 5.54121 280.695 6.02374C280.695 6.18717 280.851 6.51404 280.851 6.66969C281.014 6.99656 281.014 7.16 281.014 7.64252C281.014 7.96939 281.177 8.13282 281.177 8.45191V74.6196H282.802C287.831 74.6196 291.889 78.6821 291.889 83.554L291.881 83.5618ZM263.315 34.4847L231.01 74.6274H263.315V34.4769V34.4847Z" fill="url(#paint5_linear_343_10792)"/>
<defs>
<linearGradient id="paint0_linear_343_10792" x1="91.5653" y1="0.0700216" x2="-24.502" y2="34.644" gradientUnits="userSpaceOnUse">
<stop stop-color="#F50951"/>
<stop offset="0.427315" stop-color="#FD3A7E"/>
<stop offset="1" stop-color="#FF9B06"/>
</linearGradient>
<linearGradient id="paint1_linear_343_10792" x1="85.6704" y1="0.00776662" x2="-23.1202" y2="31.9399" gradientUnits="userSpaceOnUse">
<stop stop-color="#F50951"/>
<stop offset="0.427315" stop-color="#FD3A7E"/>
<stop offset="1" stop-color="#FF9B06"/>
</linearGradient>
<linearGradient id="paint2_linear_343_10792" x1="191.436" y1="-1.61949e-05" x2="82.2076" y2="30.2821" gradientUnits="userSpaceOnUse">
<stop stop-color="#F50951"/>
<stop offset="0.427315" stop-color="#FD3A7E"/>
<stop offset="1" stop-color="#FF9B06"/>
</linearGradient>
<linearGradient id="paint3_linear_343_10792" x1="185.591" y1="0.0233306" x2="83.6828" y2="27.7311" gradientUnits="userSpaceOnUse">
<stop stop-color="#F50951"/>
<stop offset="0.427315" stop-color="#FD3A7E"/>
<stop offset="1" stop-color="#FF9B06"/>
</linearGradient>
<linearGradient id="paint4_linear_343_10792" x1="293.918" y1="0.0700216" x2="177.837" y2="34.6399" gradientUnits="userSpaceOnUse">
<stop stop-color="#F50951"/>
<stop offset="0.427315" stop-color="#FD3A7E"/>
<stop offset="1" stop-color="#FF9B06"/>
</linearGradient>
<linearGradient id="paint5_linear_343_10792" x1="287.981" y1="0.00776662" x2="179.182" y2="31.945" gradientUnits="userSpaceOnUse">
<stop stop-color="#F50951"/>
<stop offset="0.427315" stop-color="#FD3A7E"/>
<stop offset="1" stop-color="#FF9B06"/>
</linearGradient>
</defs>
</svg>
