<svg width="681" height="335" viewBox="0 0 681 335" fill="none" xmlns="http://www.w3.org/2000/svg">
<path d="M453.246 116.312L454.804 119.476L458.312 119.985L455.771 122.461L456.378 125.953L453.246 124.297L450.114 125.953L450.705 122.461L448.18 119.985L451.672 119.476L453.246 116.312Z" fill="url(#paint0_linear_343_11487)"/>
<path d="M158.924 274.991L160.498 278.172L163.99 278.68L161.465 281.156L162.055 284.632L158.924 282.992L155.792 284.632L156.399 281.156L153.857 278.68L157.366 278.172L158.924 274.991Z" fill="url(#paint1_linear_343_11487)"/>
<path d="M567.833 0L569.407 3.1644L572.899 3.67267L570.374 6.14845L570.965 9.62437L567.833 7.98478L564.701 9.62437L565.308 6.14845L562.767 3.67267L566.275 3.1644L567.833 0Z" fill="url(#paint2_linear_343_11487)"/>
<path d="M216.164 4.80408L217.738 7.98487L221.23 8.49314L218.705 10.9689L219.296 14.4448L216.164 12.8053L213.032 14.4448L213.639 10.9689L211.098 8.49314L214.606 7.98487L216.164 4.80408Z" fill="url(#paint3_linear_343_11487)"/>
<path d="M662.094 265.367L663.652 268.531L667.161 269.04L664.619 271.515L665.226 274.991L662.094 273.352L658.963 274.991L659.553 271.515L657.012 269.04L660.52 268.531L662.094 265.367Z" fill="url(#paint4_linear_343_11487)"/>
<path d="M317.044 110.853L318.602 114.033L322.11 114.542L319.569 117.001L320.176 120.493L317.044 118.854L313.913 120.493L314.503 117.001L311.961 114.542L315.47 114.033L317.044 110.853Z" fill="url(#paint5_linear_343_11487)"/>
<path d="M5.08271 45.4985L6.64032 48.6793L10.149 49.1875L7.60767 51.6633L8.21432 55.1392L5.08271 53.4997L1.93471 55.1392L2.54136 51.6633L0 49.1875L3.50871 48.6793L5.08271 45.4985Z" fill="url(#paint6_linear_343_11487)"/>
<path d="M72.6459 234.969L74.2035 238.133L77.7122 238.642L75.1709 241.118L75.7775 244.61L72.6459 242.954L69.5143 244.61L70.1046 241.118L67.5796 238.642L71.0719 238.133L72.6459 234.969Z" fill="url(#paint7_linear_343_11487)"/>
<path d="M5.08404 288.977L6.05139 290.944L8.21565 291.256L6.64164 292.781L7.01875 294.929L5.08404 293.912L3.13293 294.929L3.51004 292.781L1.93604 291.256L4.10029 290.944L5.08404 288.977Z" fill="url(#paint8_linear_343_11487)"/>
<path d="M225.263 89.915L226.23 91.8825L228.395 92.194L226.821 93.7188L227.198 95.8667L225.263 94.8502L223.312 95.8667L223.689 93.7188L222.131 92.194L224.296 91.8825L225.263 89.915Z" fill="url(#paint9_linear_343_11487)"/>
<path d="M387.925 264.219L388.892 266.187L391.056 266.498L389.499 268.023L389.859 270.171L387.925 269.155L385.99 270.171L386.367 268.023L384.793 266.498L386.957 266.187L387.925 264.219Z" fill="url(#paint10_linear_343_11487)"/>
<path d="M22.0838 62.501L23.0511 64.4685L25.2154 64.78L23.6414 66.3048L24.0185 68.4691L22.0838 67.4525L20.149 68.4691L20.5098 66.3048L18.9521 64.78L21.1164 64.4685L22.0838 62.501Z" fill="url(#paint11_linear_343_11487)"/>
<path d="M572.904 236.805L573.888 238.773L576.036 239.084L574.478 240.609L574.855 242.757L572.904 241.74L570.969 242.757L571.346 240.609L569.772 239.084L571.937 238.773L572.904 236.805Z" fill="url(#paint12_linear_343_11487)"/>
<path d="M85.72 329.048L86.6873 331.016L88.8516 331.327L87.294 332.852L87.6547 335L85.72 333.983L83.7853 335L84.1624 332.852L82.5884 331.327L84.7526 331.016L85.72 329.048Z" fill="url(#paint13_linear_343_11487)"/>
<path d="M48.1355 224.394L49.1029 226.345L51.2671 226.673L49.7095 228.198L50.0702 230.345L48.1355 229.329L46.2008 230.345L46.5779 228.198L45.0039 226.673L47.1682 226.345L48.1355 224.394Z" fill="url(#paint14_linear_343_11487)"/>
<path d="M365.861 74.7324L366.828 76.6835L368.993 76.995L367.419 78.5199L367.796 80.6841L365.861 79.6676L363.926 80.6841L364.287 78.5199L362.729 76.995L364.894 76.6835L365.861 74.7324Z" fill="url(#paint15_linear_343_11487)"/>
<path d="M580.582 329.048L581.549 331.016L583.713 331.327L582.156 332.852L582.517 335L580.582 333.983L578.647 335L579.024 332.852L577.45 331.327L579.614 331.016L580.582 329.048Z" fill="url(#paint16_linear_343_11487)"/>
<path d="M677.823 141.89L678.79 143.857L680.955 144.169L679.381 145.694L679.758 147.858L677.823 146.825L675.888 147.858L676.249 145.694L674.691 144.169L676.856 143.857L677.823 141.89Z" fill="url(#paint17_linear_343_11487)"/>
<path d="M592.35 138.906L593.318 140.873L595.482 141.185L593.908 142.709L594.285 144.874L592.35 143.857L590.416 144.874L590.776 142.709L589.219 141.185L591.383 140.873L592.35 138.906Z" fill="url(#paint18_linear_343_11487)"/>
<defs>
<linearGradient id="paint0_linear_343_11487" x1="457.866" y1="116.312" x2="446.193" y2="120.932" gradientUnits="userSpaceOnUse">
<stop stop-color="#F50951"/>
<stop offset="0.427315" stop-color="#FD3A7E"/>
<stop offset="1" stop-color="#FF9B06"/>
</linearGradient>
<linearGradient id="paint1_linear_343_11487" x1="163.544" y1="274.991" x2="151.87" y2="279.612" gradientUnits="userSpaceOnUse">
<stop stop-color="#F50951"/>
<stop offset="0.427315" stop-color="#FD3A7E"/>
<stop offset="1" stop-color="#FF9B06"/>
</linearGradient>
<linearGradient id="paint2_linear_343_11487" x1="572.453" y1="-1.29989e-06" x2="560.785" y2="4.6261" gradientUnits="userSpaceOnUse">
<stop stop-color="#F50951"/>
<stop offset="0.427315" stop-color="#FD3A7E"/>
<stop offset="1" stop-color="#FF9B06"/>
</linearGradient>
<linearGradient id="paint3_linear_343_11487" x1="220.784" y1="4.80408" x2="209.111" y2="9.42444" gradientUnits="userSpaceOnUse">
<stop stop-color="#F50951"/>
<stop offset="0.427315" stop-color="#FD3A7E"/>
<stop offset="1" stop-color="#FF9B06"/>
</linearGradient>
<linearGradient id="paint4_linear_343_11487" x1="666.714" y1="265.367" x2="655.032" y2="270.006" gradientUnits="userSpaceOnUse">
<stop stop-color="#F50951"/>
<stop offset="0.427315" stop-color="#FD3A7E"/>
<stop offset="1" stop-color="#FF9B06"/>
</linearGradient>
<linearGradient id="paint5_linear_343_11487" x1="321.663" y1="110.853" x2="309.976" y2="115.486" gradientUnits="userSpaceOnUse">
<stop stop-color="#F50951"/>
<stop offset="0.427315" stop-color="#FD3A7E"/>
<stop offset="1" stop-color="#FF9B06"/>
</linearGradient>
<linearGradient id="paint6_linear_343_11487" x1="9.70184" y1="45.4985" x2="-1.9852" y2="50.1318" gradientUnits="userSpaceOnUse">
<stop stop-color="#F50951"/>
<stop offset="0.427315" stop-color="#FD3A7E"/>
<stop offset="1" stop-color="#FF9B06"/>
</linearGradient>
<linearGradient id="paint7_linear_343_11487" x1="77.2658" y1="234.969" x2="65.5925" y2="239.589" gradientUnits="userSpaceOnUse">
<stop stop-color="#F50951"/>
<stop offset="0.427315" stop-color="#FD3A7E"/>
<stop offset="1" stop-color="#FF9B06"/>
</linearGradient>
<linearGradient id="paint8_linear_343_11487" x1="7.93895" y1="288.977" x2="0.712155" y2="291.848" gradientUnits="userSpaceOnUse">
<stop stop-color="#F50951"/>
<stop offset="0.427315" stop-color="#FD3A7E"/>
<stop offset="1" stop-color="#FF9B06"/>
</linearGradient>
<linearGradient id="paint9_linear_343_11487" x1="228.119" y1="89.915" x2="220.906" y2="92.7736" gradientUnits="userSpaceOnUse">
<stop stop-color="#F50951"/>
<stop offset="0.427315" stop-color="#FD3A7E"/>
<stop offset="1" stop-color="#FF9B06"/>
</linearGradient>
<linearGradient id="paint10_linear_343_11487" x1="390.78" y1="264.219" x2="383.567" y2="267.078" gradientUnits="userSpaceOnUse">
<stop stop-color="#F50951"/>
<stop offset="0.427315" stop-color="#FD3A7E"/>
<stop offset="1" stop-color="#FF9B06"/>
</linearGradient>
<linearGradient id="paint11_linear_343_11487" x1="24.9394" y1="62.501" x2="17.721" y2="65.3538" gradientUnits="userSpaceOnUse">
<stop stop-color="#F50951"/>
<stop offset="0.427315" stop-color="#FD3A7E"/>
<stop offset="1" stop-color="#FF9B06"/>
</linearGradient>
<linearGradient id="paint12_linear_343_11487" x1="575.76" y1="236.805" x2="568.547" y2="239.664" gradientUnits="userSpaceOnUse">
<stop stop-color="#F50951"/>
<stop offset="0.427315" stop-color="#FD3A7E"/>
<stop offset="1" stop-color="#FF9B06"/>
</linearGradient>
<linearGradient id="paint13_linear_343_11487" x1="88.5756" y1="329.048" x2="81.3626" y2="331.907" gradientUnits="userSpaceOnUse">
<stop stop-color="#F50951"/>
<stop offset="0.427315" stop-color="#FD3A7E"/>
<stop offset="1" stop-color="#FF9B06"/>
</linearGradient>
<linearGradient id="paint14_linear_343_11487" x1="50.9911" y1="224.394" x2="43.7781" y2="227.252" gradientUnits="userSpaceOnUse">
<stop stop-color="#F50951"/>
<stop offset="0.427315" stop-color="#FD3A7E"/>
<stop offset="1" stop-color="#FF9B06"/>
</linearGradient>
<linearGradient id="paint15_linear_343_11487" x1="368.717" y1="74.7324" x2="361.504" y2="77.591" gradientUnits="userSpaceOnUse">
<stop stop-color="#F50951"/>
<stop offset="0.427315" stop-color="#FD3A7E"/>
<stop offset="1" stop-color="#FF9B06"/>
</linearGradient>
<linearGradient id="paint16_linear_343_11487" x1="583.437" y1="329.048" x2="576.224" y2="331.907" gradientUnits="userSpaceOnUse">
<stop stop-color="#F50951"/>
<stop offset="0.427315" stop-color="#FD3A7E"/>
<stop offset="1" stop-color="#FF9B06"/>
</linearGradient>
<linearGradient id="paint17_linear_343_11487" x1="680.679" y1="141.89" x2="673.46" y2="144.743" gradientUnits="userSpaceOnUse">
<stop stop-color="#F50951"/>
<stop offset="0.427315" stop-color="#FD3A7E"/>
<stop offset="1" stop-color="#FF9B06"/>
</linearGradient>
<linearGradient id="paint18_linear_343_11487" x1="595.206" y1="138.906" x2="587.988" y2="141.758" gradientUnits="userSpaceOnUse">
<stop stop-color="#F50951"/>
<stop offset="0.427315" stop-color="#FD3A7E"/>
<stop offset="1" stop-color="#FF9B06"/>
</linearGradient>
</defs>
</svg>
